<?xml version="1.0" encoding="UTF-8" standalone="no"?>
<!-- Created with Inkscape (http://www.inkscape.org/) -->
<svg
   xmlns:dc="http://purl.org/dc/elements/1.1/"
   xmlns:cc="http://creativecommons.org/ns#"
   xmlns:rdf="http://www.w3.org/1999/02/22-rdf-syntax-ns#"
   xmlns:svg="http://www.w3.org/2000/svg"
   xmlns="http://www.w3.org/2000/svg"
   xmlns:xlink="http://www.w3.org/1999/xlink"
   xmlns:sodipodi="http://sodipodi.sourceforge.net/DTD/sodipodi-0.dtd"
   xmlns:inkscape="http://www.inkscape.org/namespaces/inkscape"
   width="414.91"
   height="165.21986"
   id="svg2383"
   sodipodi:version="0.32"
   inkscape:version="0.46"
   sodipodi:docname="musique.svg"
   inkscape:output_extension="org.inkscape.output.svg.inkscape"
   version="1.0"
   inkscape:export-filename="/home/jasper/Project/Musique/musique/resources/musique.png"
   inkscape:export-xdpi="65.07"
   inkscape:export-ydpi="65.07">
  <defs
     id="defs2385">
    <inkscape:perspective
       sodipodi:type="inkscape:persp3d"
       inkscape:vp_x="0 : 240 : 1"
       inkscape:vp_y="0 : 1000 : 0"
       inkscape:vp_z="640 : 240 : 1"
       inkscape:persp3d-origin="320 : 160 : 1"
       id="perspective2391" />
    <linearGradient
       y2="1"
       x2="8"
       y1="7"
       x1="7"
       gradientUnits="userSpaceOnUse"
       id="linearGradient3777"
       xlink:href="#linearGradient3648"
       inkscape:collect="always" />
    <linearGradient
       y2="16"
       x2="10"
       y1="1"
       x1="5"
       gradientUnits="userSpaceOnUse"
       id="linearGradient3774"
       xlink:href="#linearGradient3567"
       inkscape:collect="always" />
    <linearGradient
       gradientUnits="userSpaceOnUse"
       y2="1"
       x2="8"
       y1="9"
       x1="8"
       id="linearGradient3757"
       xlink:href="#linearGradient3648"
       inkscape:collect="always" />
    <linearGradient
       y2="16"
       x2="10"
       y1="1"
       x1="5"
       gradientUnits="userSpaceOnUse"
       id="linearGradient3748"
       xlink:href="#linearGradient3567"
       inkscape:collect="always" />
    <linearGradient
       gradientUnits="userSpaceOnUse"
       y2="4.5"
       x2="15"
       y1="4.5"
       x1="1"
       id="linearGradient3744"
       xlink:href="#linearGradient3648"
       inkscape:collect="always" />
    <linearGradient
       gradientUnits="userSpaceOnUse"
       y2="16"
       x2="10"
       y1="1"
       x1="5"
       id="linearGradient3734"
       xlink:href="#linearGradient3567"
       inkscape:collect="always" />
    <linearGradient
       gradientUnits="userSpaceOnUse"
       y2="7"
       x2="14"
       y1="7"
       x1="1"
       id="linearGradient3724"
       xlink:href="#linearGradient3567"
       inkscape:collect="always" />
    <linearGradient
       gradientTransform="matrix(-1,0,0,1,16,0)"
       y2="8"
       x2="15.35"
       y1="8"
       x1="0.65000004"
       gradientUnits="userSpaceOnUse"
       id="linearGradient3654"
       xlink:href="#linearGradient3567"
       inkscape:collect="always" />
    <linearGradient
       gradientTransform="matrix(-1,0,0,1,15,0.1875)"
       y2="2"
       x2="8"
       y1="8"
       x1="8"
       gradientUnits="userSpaceOnUse"
       id="linearGradient3646"
       xlink:href="#linearGradient3648"
       inkscape:collect="always" />
    <linearGradient
       y2="8"
       x2="15.35"
       y1="8"
       x1="0.65000004"
       gradientUnits="userSpaceOnUse"
       id="linearGradient3643"
       xlink:href="#linearGradient3567"
       inkscape:collect="always" />
    <linearGradient
       gradientUnits="userSpaceOnUse"
       y2="0"
       x2="8"
       y1="8"
       x1="8"
       id="linearGradient3595"
       xlink:href="#linearGradient3589"
       inkscape:collect="always" />
    <linearGradient
       gradientUnits="userSpaceOnUse"
       y2="8"
       x2="15.35"
       y1="8"
       x1="0.65000004"
       id="linearGradient3585"
       xlink:href="#linearGradient3567"
       inkscape:collect="always" />
    <inkscape:perspective
       id="perspective2540"
       inkscape:persp3d-origin="8 : 5.3333333 : 1"
       inkscape:vp_z="16 : 8 : 1"
       inkscape:vp_y="0 : 1000 : 0"
       inkscape:vp_x="0 : 8 : 1"
       sodipodi:type="inkscape:persp3d" />
    <linearGradient
       id="linearGradient3567">
      <stop
         id="stop3569"
         offset="0"
         style="stop-color:#003399;stop-opacity:1;" />
      <stop
         id="stop3571"
         offset="1"
         style="stop-color:#8cb2fd;stop-opacity:1;" />
    </linearGradient>
    <linearGradient
       id="linearGradient3589">
      <stop
         id="stop3591"
         offset="0"
         style="stop-color:#06a911;stop-opacity:1;" />
      <stop
         id="stop3593"
         offset="1"
         style="stop-color:#037305;stop-opacity:1;" />
    </linearGradient>
    <linearGradient
       id="linearGradient3648">
      <stop
         style="stop-color:#ffffff;stop-opacity:1;"
         offset="0"
         id="stop3650" />
      <stop
         style="stop-color:#ffffff;stop-opacity:0.2"
         offset="1"
         id="stop3652" />
    </linearGradient>
    <radialGradient
       inkscape:collect="always"
       xlink:href="#linearGradient3589"
       id="radialGradient3342"
       cx="300.75177"
       cy="125.03546"
       fx="300.75177"
       fy="125.03546"
       r="243.95744"
       gradientTransform="matrix(1,0,0,0.4761905,0,65.494763)"
       gradientUnits="userSpaceOnUse" />
    <linearGradient
       inkscape:collect="always"
       xlink:href="#linearGradient3648"
       id="linearGradient4090"
       x1="319.46808"
       y1="65.659569"
       x2="319.46808"
       y2="198.60992"
       gradientUnits="userSpaceOnUse"
       gradientTransform="matrix(0.7343925,0,0,0.7343925,25.687219,17.096836)" />
    <filter
       inkscape:collect="always"
       id="filter4182"
       x="-0.10016402"
       width="1.200328"
       y="-0.4171311"
       height="1.8342623">
      <feGaussianBlur
         inkscape:collect="always"
         stdDeviation="10.765024"
         id="feGaussianBlur4184" />
    </filter>
    <linearGradient
       inkscape:collect="always"
       xlink:href="#linearGradient3648"
       id="linearGradient4196"
       gradientUnits="userSpaceOnUse"
       x1="123.91489"
       y1="33.390068"
       x2="356.25531"
       y2="175.37589"
       gradientTransform="matrix(0.7343925,0,0,0.7343925,41.802187,33.211803)" />
    <radialGradient
       inkscape:collect="always"
       xlink:href="#linearGradient3589"
       id="radialGradient4235"
       gradientUnits="userSpaceOnUse"
       gradientTransform="matrix(1,0,0,0.4761905,0,65.494763)"
       cx="300.75177"
       cy="125.03546"
       fx="300.75177"
       fy="125.03546"
       r="243.95744" />
    <filter
       inkscape:collect="always"
       id="filter4290">
      <feGaussianBlur
         inkscape:collect="always"
         stdDeviation="4.7103187"
         id="feGaussianBlur4292" />
    </filter>
    <filter
       inkscape:collect="always"
       id="filter4316"
       x="-0.061782662"
       width="1.1235653"
       y="-0.18245192"
       height="1.3649038">
      <feGaussianBlur
         inkscape:collect="always"
         stdDeviation="12.560284"
         id="feGaussianBlur4318" />
    </filter>
    <filter
       inkscape:collect="always"
       id="filter4370"
       x="-0.13269231"
       width="1.2653846"
       y="-0.13269231"
       height="1.2653846">
      <feGaussianBlur
         inkscape:collect="always"
         stdDeviation="0.82932692"
         id="feGaussianBlur4372" />
    </filter>
    <filter
       inkscape:collect="always"
       id="filter4414"
       x="-0.054161388"
       width="1.1083229"
       y="-0.21515676"
       height="1.4303135">
      <feGaussianBlur
         inkscape:collect="always"
         stdDeviation="5.9112079"
         id="feGaussianBlur4416" />
    </filter>
  </defs>
  <sodipodi:namedview
     id="base"
     pagecolor="#ffffff"
     bordercolor="#666666"
     borderopacity="1.0"
     inkscape:pageopacity="0.0"
     inkscape:pageshadow="2"
     inkscape:zoom="1.095627"
     inkscape:cx="241.63551"
     inkscape:cy="100.51916"
     inkscape:current-layer="layer1"
     inkscape:document-units="px"
     showgrid="false"
     inkscape:window-width="929"
     inkscape:window-height="590"
     inkscape:window-x="200"
     inkscape:window-y="66" />
  <metadata
     id="metadata2388">
    <rdf:RDF>
      <cc:Work
         rdf:about="">
        <dc:format>image/svg+xml</dc:format>
        <dc:type
           rdf:resource="http://purl.org/dc/dcmitype/StillImage" />
      </cc:Work>
    </rdf:RDF>
  </metadata>
  <g
     id="layer1"
     inkscape:label="Layer 1"
     inkscape:groupmode="layer"
     transform="translate(-56.794327,-42.425529)">
    <rect
       ry="82.609932"
       y="42.425529"
       x="56.794327"
       height="165.21986"
       width="487.91489"
       id="rect4294"
       style="opacity:1;fill:#000000;fill-opacity:1;stroke:none;stroke-width:1;stroke-linejoin:round;stroke-miterlimit:4;stroke-dasharray:none;stroke-opacity:1;filter:url(#filter4316)"
       transform="matrix(0.7343925,0,0,0.7343925,41.802187,33.211803)" />
    <rect
       style="opacity:1;fill:#000000;fill-opacity:1;stroke:none;stroke-width:1;stroke-linejoin:round;stroke-miterlimit:4;stroke-dasharray:none;stroke-opacity:1"
       id="rect2562"
       width="358.32101"
       height="121.33622"
       x="83.511505"
       y="64.36879"
       ry="60.66811" />
    <path
       style="opacity:0.4;fill:url(#linearGradient4196);fill-opacity:1;fill-rule:evenodd;stroke:none;stroke-width:1px;stroke-linecap:butt;stroke-linejoin:miter;stroke-opacity:1"
       d="M 142.59755,64.377583 C 109.71906,65.205005 83.501905,91.948835 83.501905,125.03381 C 83.501905,158.64394 110.57095,185.71299 144.18108,185.71299 L 168.30128,185.71299 C 237.96417,151.42866 293.65754,110.51786 439.2003,107.22479 C 431.62733,82.356529 408.5695,64.377583 381.16035,64.377583 L 144.18108,64.377583 C 143.65592,64.377583 143.11943,64.364449 142.59755,64.377583 z"
       id="path4092" />
    <path
       style="opacity:0.7;fill:url(#linearGradient4090);fill-opacity:1;stroke:none;stroke-width:3.29999995;stroke-linejoin:round;stroke-miterlimit:4;stroke-dasharray:none;stroke-opacity:1"
       d="M 143.53849,64.377583 C 117.45943,74.8505 101.51748,88.817342 101.51748,104.17247 C 101.51748,136.61475 172.66043,162.94682 260.30689,162.94682 C 347.95335,162.94682 419.07337,136.61475 419.07336,104.17247 C 419.07336,88.817343 403.13141,74.850501 377.05234,64.377583 L 144.18108,64.377583 C 143.96797,64.377583 143.75106,64.375413 143.53849,64.377583 z"
       id="path4082" />
    <text
       xml:space="preserve"
       style="font-size:64px;font-style:normal;font-weight:normal;opacity:0.7;fill:#000000;fill-opacity:1;stroke:#000000;stroke-width:4;stroke-linecap:butt;stroke-linejoin:miter;stroke-miterlimit:4;stroke-dasharray:none;stroke-opacity:1;filter:url(#filter4414);font-family:Bitstream Vera Sans"
       x="225.88654"
       y="144.39719"
       id="text4374"
       transform="matrix(0.7343925,0,0,0.7343925,41.802187,33.211803)"><tspan
         sodipodi:role="line"
         id="tspan4376"
         x="225.88654"
         y="144.39719">Musique</tspan></text>
    <g
       transform="matrix(6.6748115,0,0,6.6748115,93.624945,71.638409)"
       id="g4320"
       inkscape:label="Layer 1"
       style="fill:#000000;fill-opacity:1;stroke:#000000;stroke-opacity:1;filter:url(#filter4370)">
      <path
         id="path4322"
         d="M 8,1 C 4.136,1 1,4.136 1,8 C 1,11.864 4.136,15 8,15 C 11.864,15 15,11.864 15,8 C 15,4.136 11.864,1 8,1 z M 8,6 C 9.104,6 10,6.896 10,8 C 10,9.104 9.104,10 8,10 C 6.896,10 6,9.104 6,8 C 6,6.896 6.896,6 8,6 z"
         style="opacity:1;fill:#000000;fill-opacity:1;stroke:#000000;stroke-width:1;stroke-linejoin:round;stroke-miterlimit:4;stroke-dasharray:none;stroke-opacity:1" />
      <path
         style="opacity:0.4;fill:#000000;fill-opacity:1;stroke:#000000;stroke-width:1;stroke-linejoin:round;stroke-miterlimit:4;stroke-dasharray:none;stroke-opacity:1"
         d="M 8,1 C 4.136,1 1,4.136 1,8 C 3.4594595,7.0777027 4.9746969,7.0253066 6.125,7.28125 C 6.4129061,6.5299873 7.14785,6 8,6 C 9.104,6 10,6.896 10,8 C 10,8.25185 9.9600897,8.4967169 9.875,8.71875 C 11.025303,8.9746934 12.540541,8.9222973 15,8 C 15,4.136 11.864,1 8,1 z"
         id="path4324" />
    </g>
    <g
       inkscape:label="Layer 1"
       id="g2554"
       transform="matrix(6.6748115,0,0,6.6748115,93.624945,71.638409)">
      <path
         style="opacity:1;fill:url(#linearGradient3734);fill-opacity:1;stroke:#003399;stroke-width:1;stroke-linejoin:round;stroke-miterlimit:4;stroke-dasharray:none;stroke-opacity:1"
         d="M 8,1 C 4.136,1 1,4.136 1,8 C 1,11.864 4.136,15 8,15 C 11.864,15 15,11.864 15,8 C 15,4.136 11.864,1 8,1 z M 8,6 C 9.104,6 10,6.896 10,8 C 10,9.104 9.104,10 8,10 C 6.896,10 6,9.104 6,8 C 6,6.896 6.896,6 8,6 z"
         id="path3762" />
      <path
         id="path3726"
         d="M 8,1 C 4.136,1 1,4.136 1,8 C 3.4594595,7.0777027 4.9746969,7.0253066 6.125,7.28125 C 6.4129061,6.5299873 7.14785,6 8,6 C 9.104,6 10,6.896 10,8 C 10,8.25185 9.9600897,8.4967169 9.875,8.71875 C 11.025303,8.9746934 12.540541,8.9222973 15,8 C 15,4.136 11.864,1 8,1 z"
         style="opacity:0.4;fill:url(#linearGradient3777);fill-opacity:1;stroke:none;stroke-width:1;stroke-linejoin:round;stroke-miterlimit:4;stroke-dasharray:none;stroke-opacity:1" />
    </g>
    <text
       id="text4226"
       y="139.25601"
       x="207.69156"
       style="font-size:47.00111771px;font-style:normal;font-weight:normal;opacity:0.8627451;fill:#f5f5f5;fill-opacity:1;stroke:#f5f5f5;stroke-width:2.93756986;stroke-linecap:butt;stroke-linejoin:miter;stroke-miterlimit:4;stroke-dasharray:none;stroke-opacity:1;font-family:Bitstream Vera Sans"
       xml:space="preserve"><tspan
         y="139.25601"
         x="207.69156"
         id="tspan4228"
         sodipodi:role="line"
         style="stroke-width:2.93756986">Musique</tspan></text>
  </g>
</svg>
